<svg xmlns="http://www.w3.org/2000/svg" xmlns:xlink="http://www.w3.org/1999/xlink" width="20" height="20" viewBox="0 0 20 20">
  <defs>
    <clipPath id="clip-path">
      <rect id="Rectangle_217619" data-name="Rectangle 217619" width="20" height="20" transform="translate(-7888 -8016)" fill="#f48120"/>
    </clipPath>
    <clipPath id="clip-path-2">
      <rect id="Rectangle_217618" data-name="Rectangle 217618" width="20" height="18.623" fill="#f48120"/>
    </clipPath>
  </defs>
  <g id="Mask_Group_219667" data-name="Mask Group 219667" transform="translate(7888 8016)" clip-path="url(#clip-path)">
    <g id="Group_227701" data-name="Group 227701" transform="translate(-7888 -8015.166)">
      <g id="Group_227700" data-name="Group 227700" clip-path="url(#clip-path-2)">
        <path id="Path_500166" data-name="Path 500166" d="M0,8.931C.558,8.323,1.1,7.7,1.676,7.111,3.733,5.038,5.791,2.967,7.873.92A2.921,2.921,0,0,1,12.117.909c.719.686,1.4,1.41,2.225,2.1,0-.359-.019-.72,0-1.078A1.14,1.14,0,0,1,15.918.851a1.066,1.066,0,0,1,.688,1.082c0,1,.014,1.991,0,2.987a1,1,0,0,0,.335.813c.822.792,1.625,1.6,2.424,2.42.234.239.428.518.64.778v.588c-.585,1.027-1.348,1.123-2.188.281q-3.547-3.555-7.1-7.106c-.573-.573-.857-.573-1.431,0q-3.6,3.6-7.2,7.209a1.152,1.152,0,0,1-1.617.219A3.314,3.314,0,0,1,0,9.519V8.931" transform="translate(0 0)" fill="#f48120"/>
        <path id="Path_500167" data-name="Path 500167" d="M33.536,59.9c-1.292,0-2.5.065-3.7-.021a1.931,1.931,0,0,1-1.659-1.957c-.037-1.6-.023-3.2,0-4.8a.96.96,0,0,1,.277-.591q3.207-3.237,6.438-6.451c.373-.372.634-.372,1.006,0q3.226,3.219,6.436,6.453a1.094,1.094,0,0,1,.28.688q.037,2.278.008,4.557a2.061,2.061,0,0,1-2.206,2.155c-.98.006-1.96,0-2.94-.005a.911.911,0,0,1-.188-.055v-5H33.536Z" transform="translate(-25.396 -41.307)" fill="#f48120"/>
      </g>
    </g>
  </g>
</svg>
