<svg xmlns="http://www.w3.org/2000/svg" xmlns:xlink="http://www.w3.org/1999/xlink" width="48" height="48" viewBox="0 0 48 48">
  <defs>
    <clipPath id="clip-path">
      <rect id="Rectangle_237791" data-name="Rectangle 237791" width="48" height="48" fill="#0094d4" stroke="#707070" stroke-width="1"/>
    </clipPath>
    <clipPath id="clip-path-2">
      <rect id="Rectangle_237790" data-name="Rectangle 237790" width="40.741" height="44.964" fill="#0094d4"/>
    </clipPath>
  </defs>
  <g id="Mask_Group_272853" data-name="Mask Group 272853" clip-path="url(#clip-path)">
    <g id="Group_279076" data-name="Group 279076" transform="translate(4 2)">
      <g id="Group_279075" data-name="Group 279075" clip-path="url(#clip-path-2)">
        <path id="Path_579574" data-name="Path 579574" d="M40.742,20.285l-1.518-.963-.394-2.6a9.467,9.467,0,0,0,1.333-.7c.077-.056-.073-.676-.188-.7a7.64,7.64,0,0,0-1.46-.035L36.86,11.509a15.328,15.328,0,0,0,1.246-1.032c.035-.035-.323-.63-.416-.609a8.6,8.6,0,0,0-1.329.519L34.288,7.772l.1-.183,1.02.454a1.117,1.117,0,0,1,.127-.339L35.525,7.7l-.509-1.5-1.3.459.011.309L29.678,4.611a4.107,4.107,0,0,0,.625-.579,3.008,3.008,0,0,0,.508-1.014c.021-.1-.623-.484-.68-.431a3.233,3.233,0,0,0-.65.934,3.169,3.169,0,0,0-.185.717l-3.6-1.2a6.513,6.513,0,0,0,.768-1.059,1.345,1.345,0,0,0,.059-.935.751.751,0,0,0-.7-.212,1.311,1.311,0,0,0-.483.8,6.447,6.447,0,0,0,.087,1.352L20.966,1.676A11.629,11.629,0,0,0,20.715.062a1.2,1.2,0,0,0-.734-.009,11.188,11.188,0,0,0-.3,1.6L16.332,2.3a9.536,9.536,0,0,0,.173-1.027c.036-.731-.9-1.188-1.145-.6-.195.479.117,1.164.221,1.867L11.568,4.031a13.946,13.946,0,0,0-.993-1.443,2.037,2.037,0,0,0-.705.392A15.634,15.634,0,0,0,10.6,4.563L8.061,6.5A14.237,14.237,0,0,0,6.767,5.312c-.06-.044-.6.412-.582.437.3.5.656.978,1.063,1.548L4.564,10.556a16.268,16.268,0,0,0-1.617-.679,1.637,1.637,0,0,0-.368.636,16.767,16.767,0,0,0,1.4,1.057L2.851,14.592a18.093,18.093,0,0,0-1.769-.476,2.859,2.859,0,0,0-.254.765c.514.243,1.057.422,1.747.672l-.927,4.132a8.894,8.894,0,0,0-1.548.25c-.1.035-.13.706-.063.73a12.585,12.585,0,0,0,1.582.383l.335,2.968a10.519,10.519,0,0,0-1.439.622c-.073.044.09.709.153.711a13.7,13.7,0,0,0,1.586-.115l1.484,3.989a9.789,9.789,0,0,0-1.151.925c-.058.06.276.659.336.643a14,14,0,0,0,1.521-.544l1.61,2.6a6.634,6.634,0,0,0-.729,1.131c-.044.107.425.582.486.551a12.254,12.254,0,0,0,1.316-.868l3.8,2.563c-.3.219-.574.384-.807.589-.588.518-.218,1.569.4,1.272.465-.225.681-.968,1.074-1.584l2.9,1.416a16.992,16.992,0,0,0-.355,1.735,2.027,2.027,0,0,0,.688.242c.262-.539.472-1.1.7-1.692,1.814.227,1.814.227,1.815,2.143,0,1.542,0,3.084,0,4.616h6c0-1.774-.021-3.468.019-5.16a2.214,2.214,0,0,1,.371-.82L24.9,40.263l.854-1.16a1.04,1.04,0,0,1,.773-.226,1.122,1.122,0,0,1,.123-.163.9.9,0,0,1,.223-.173l.013-.02h-.052l-.039-.191,2.163-.821c.7.263,1.247.649,1.473.51.3-.186.352-.78.511-1.2l-.223-.138c.609-.42,1.195-.881,1.838-1.239.267-.148.665-.037.988-.114s.932-.251.928-.366c-.044-1.343,1.038-2.088,1.572-3.113A1.812,1.812,0,0,1,36.854,31c.4-.167,1.017-.243,1.133-.526.128-.312-.208-.813-.414-1.458l.9-2.117,1.369-.555c-.151-.344-.3-.687-.452-1.033-.086-.2-.244-.414-.228-.609a16.336,16.336,0,0,1,.564-3.427l1.016-.99M28.361,21.1c2.932-.1,5.861-.317,8.791-.483.308-.017.617,0,1.015,0l-.591,4.678L23.231,20.109a2.137,2.137,0,0,0,1.635,2.572q5.716,1.39,11.437,2.76c.34.082.677.18,1.157.309L36.1,29.2c-2.406-1.573-4.663-3.143-7.019-4.549a34.878,34.878,0,0,0-3.987-1.776l-.281.467a11.013,11.013,0,0,0,1.8,1.5c3.028,1.6,6.1,3.121,9.263,4.725l-3,3.778L23,21.633a2.035,2.035,0,0,0,.136,3.042q4.223,4.03,8.462,8.044c.3.289.653.533,1.067.866l-2.977,2.562c-.662-1.3-1.283-2.522-1.9-3.742-.734-1.452-1.375-2.961-2.226-4.34a33.575,33.575,0,0,0-2.49-3.17l-.434.267a17.459,17.459,0,0,0,1.09,2.541c1.592,2.549,3.269,5.046,4.911,7.564.208.32.4.649.671,1.088l-4.585,1.557-.83-4.415-.171-.014c0,.448-.011.9,0,1.344a11.972,11.972,0,0,0,.1,1.583,12.611,12.611,0,0,0,.424,1.468c-.937.368-.906-.164-.905-.694,0-2.725-.015-5.451.008-8.176.007-.8-.146-1.308-1.081-1.506a1.672,1.672,0,0,1-.932-1.2,12.561,12.561,0,0,1-.009-2.964,2.276,2.276,0,0,1,.635-1.152,2.479,2.479,0,0,0,.081-3.521,2.434,2.434,0,0,0-3.358-.055,2.512,2.512,0,0,0,.04,3.6,3.106,3.106,0,0,1,.6,1.48,18.441,18.441,0,0,1,.03,1.907c.059,1.053-.076,1.879-1.391,2.079-.266.041-.588.82-.6,1.264-.057,2.547-.027,5.1-.027,7.644v1.265l-1.859-.485c.826-2.43,2.044-4.711,1.323-7.454l-1.814,7.4-3.136-1.609c1.763-3.759,5.177-6.523,5.52-10.961a10.368,10.368,0,0,0-1.427,1.7c-1.357,2.562-2.629,5.168-3.937,7.756-.189.374-.4.736-.689,1.262L7.466,32.758c1.185-1,2.227-1.892,3.273-2.775,2.027-1.712,4.031-3.453,6.1-5.114A2.984,2.984,0,0,0,18.15,22.4a2.463,2.463,0,0,0-2.121.735C13.379,25.989,10.68,28.794,8,31.616c-.241.254-.472.517-.867.952L4.957,29.46c1.928-.975,3.721-1.863,5.5-2.782,1.809-.937,3.773-1.656,5.01-3.433.1-.14.206-.271.309-.407l-.136-.257a17.873,17.873,0,0,0-2.529,1.107c-2.745,1.727-5.442,3.531-8.264,5.376-.676-1.478-1.588-2.757-1.463-4.485L17.81,22a1.8,1.8,0,0,0-2.461-1.407Q9.907,22.181,4.471,23.8c-.333.1-.67.186-1.156.321-.068-1.188-.131-2.295-.2-3.43,4.048-.313,8.049,1.178,12-.677A11.016,11.016,0,0,0,12.78,19.6c-3.144.115-6.284.329-9.64.518.143-1.5.281-2.931.438-4.571l13.855,5a1.983,1.983,0,0,0-1.591-2.5Q10.537,16.76,5.229,15.486c-.375-.091-.747-.194-1.23-.32l1.4-3.178c1.728,1.131,3.409,2.207,5.063,3.322s3.256,2.258,5.676,2.252a12.359,12.359,0,0,0-1.888-1.6c-2.527-1.345-5.1-2.6-7.653-3.9-.308-.156-.605-.331-.992-.544L8.317,7.912,17.7,19.042a1.928,1.928,0,0,0-.146-2.979Q13.6,12.291,9.627,8.533C9.372,8.29,9.08,8.087,8.7,7.78l2.791-2.067c2.28,3.261,2.942,7.492,6.264,10.024l.3-.131a15.32,15.32,0,0,0-1-2.412c-1.631-2.6-3.343-5.159-5.113-7.869l4.13-2.139,2.649,14.77a2.031,2.031,0,0,0,1.343-2.742Q18.472,9.821,16.875,4.432c-.109-.369-.214-.739-.348-1.2h3.56c-.133,2.529-.345,4.992-.361,7.457a39.774,39.774,0,0,0,.445,4.442l.522.012a12.455,12.455,0,0,0,.379-2.415c-.112-3.139-.319-6.274-.5-9.629l4.557.495-5,13.872,1.967.586L25.578,3.664,28.9,5.013c-1.56,2.389-3.08,4.564-4.426,6.841a29.921,29.921,0,0,0-1.626,3.827l.446.266a13.153,13.153,0,0,0,1.577-1.959c1.351-2.525,2.609-5.1,3.9-7.655.157-.309.328-.611.591-1.1l3.873,2.646-8.063,6.8c-.514.433-1,.9-1.551,1.287a2.646,2.646,0,0,0-1.129,2.3,2.84,2.84,0,0,0,2.436-.965c2.569-2.781,5.2-5.5,7.8-8.252a9.887,9.887,0,0,0,.7-1l2.2,3.039c-3.477,2.485-7.92,3.129-10.564,6.6l.127.3a11.433,11.433,0,0,0,2.18-.826c2.806-1.767,5.566-3.607,8.506-5.527L37.743,16l-15,2.692a2.117,2.117,0,0,0,2.745,1.4q5.49-1.62,10.976-3.251c.37-.11.744-.208,1.277-.357L38.2,20.1c-1.7-.08-3.3-.149-4.9-.235a42.209,42.209,0,0,0-4.34-.222,20.168,20.168,0,0,0-3.334.716q0,.2,0,.4a16.431,16.431,0,0,0,2.739.349" transform="translate(0 0)" fill="#0094d4"/>
        <path id="Path_579575" data-name="Path 579575" d="M82.035,111.572l1.112-4.607.233-.052a4.7,4.7,0,0,1,.27.958c.044.632.015,1.268.014,1.9,0,1.493,0,1.493-1.63,1.8" transform="translate(-64.625 -84.223)" fill="#0094d4"/>
        <path id="Path_579576" data-name="Path 579576" d="M102.5,107.705l.743,4.205-.243.218c-.27-.225-.758-.436-.774-.677-.079-1.235-.036-2.477-.036-3.717l.311-.03" transform="translate(-80.493 -84.847)" fill="#0094d4"/>
      </g>
    </g>
  </g>
</svg>
