<svg id="Group_277898" data-name="Group 277898" xmlns="http://www.w3.org/2000/svg" xmlns:xlink="http://www.w3.org/1999/xlink" width="48" height="48" viewBox="0 0 48 48">
  <defs>
    <clipPath id="clip-path">
      <rect id="Rectangle_235479" data-name="Rectangle 235479" width="48" height="48" fill="#fff"/>
    </clipPath>
  </defs>
  <g id="Group_277896" data-name="Group 277896" clip-path="url(#clip-path)">
    <path id="Path_567623" data-name="Path 567623" d="M57.268,8.244c0,2.232-.035,4.466.016,6.7.023,1.011-.2,1.477-1.357,1.555A7.454,7.454,0,0,0,49,23.16a7.605,7.605,0,0,0,5.247,8.091,7.369,7.369,0,0,0,8.935-3.769,9.13,9.13,0,0,0,.821-3.06c.1-.92.448-1.159,1.3-1.177,2.82-.061,3,.129,2.478,2.945A11.467,11.467,0,1,1,54.178,12.771c1.267-.238,1.65-.667,1.609-1.949-.1-3.113-.04-6.231-.024-9.347a3.116,3.116,0,0,1,.216-1.2.88.88,0,0,1,.677-.254,2.219,2.219,0,0,1,.586,1.112c.052,2.371.026,4.744.027,7.115" transform="translate(-32.539 -0.001)" fill="#fff"/>
    <path id="Path_567624" data-name="Path 567624" d="M113.926,83.186c1.484,0,2.97-.05,4.448.035.389.022.754.465,1.13.715-.373.249-.727.669-1.124.715-1.187.137-2.748-.308-3.487.3-.711.585-.522,2.216-.828,3.36-1.893,7.088-6.218,11.9-13.266,14.13-1.478.468-1.624.36-1.646-1.134,0-.093.008-.187,0-.279-.3-2.786.05-4.812,3.187-6.3,3.887-1.844,5.774-5.652,6.028-10.031.072-1.229.476-1.621,1.665-1.534,1.291.094,2.595.021,3.892.022" transform="translate(-71.505 -59.951)" fill="#fff"/>
    <path id="Path_567625" data-name="Path 567625" d="M19.905,99.435c1.913,0,3.666-.042,5.414.038.321.015.753.473.905.826,2.215,5.129,6.06,7.961,11.638,8.31.985.062,1.256.422,1.241,1.352-.044,2.787.02,5.577-.052,8.363-.012.459-.5.906-.765,1.359a4.382,4.382,0,0,1-.682-1.314c-.143-1.094.25-2.5-.3-3.225-.479-.63-1.968-.449-2.989-.71q-11.119-2.845-14.306-13.91a7.3,7.3,0,0,1-.1-1.089" transform="translate(-14.367 -71.684)" fill="#fff"/>
    <path id="Path_567626" data-name="Path 567626" d="M19.863,18.243c0,2.2.019,4.182-.026,6.163-.006.233-.326.561-.576.67-5.407,2.372-8.062,6.585-8.331,12.416,0,.043-.037.085-.089.2a1.425,1.425,0,0,1-.45.146c-3.06.01-6.121.036-9.179-.027C.8,37.8.4,37.326,0,37.067c.39-.234.763-.629,1.172-.671,1.192-.121,2.7.319,3.5-.266.675-.493.486-2.124.759-3.232A19.133,19.133,0,0,1,18.089,18.682c.5-.181,1.032-.259,1.773-.439" transform="translate(0 -13.153)" fill="#fff"/>
    <path id="Path_567627" data-name="Path 567627" d="M105.777,18.88c-.477.561-.718.886-1,1.17-1.766,1.78-3.578,3.515-5.3,5.339A2.711,2.711,0,0,1,96.92,26.4a5.953,5.953,0,0,0-5.907,2.4A69.268,69.268,0,0,1,85.7,34.114c-.288.274-.838.273-1.267.4.087-.469.012-1.095.288-1.383,2.118-2.215,4.269-4.4,6.485-6.515A3.09,3.09,0,0,0,92.4,23.7a5.563,5.563,0,0,1,2.308-5.665c1.543-1.248,2.84-2.8,4.282-4.181a3.61,3.61,0,0,1,1.06-.486,4,4,0,0,1,.451,1.076c.126,1.228-.262,2.854.383,3.58.555.625,2.259.19,3.447.3a6.387,6.387,0,0,1,1.44.555" transform="translate(-60.941 -9.639)" fill="#fff"/>
    <path id="Path_567628" data-name="Path 567628" d="M70.4,76.486a6.135,6.135,0,0,1-.746-12.226c.431-.048,1.269.193,1.283.356a3.221,3.221,0,0,1-.29,1.923,17.438,17.438,0,0,1-1.99,2.122c-1.25,1.347-1.29,2.637-.145,3.8a2.51,2.51,0,0,0,3.8-.105c.772-.733,1.462-1.56,2.28-2.235a4.518,4.518,0,0,1,1.453-.513,4.546,4.546,0,0,1,.41,1.471A6.132,6.132,0,0,1,70.4,76.486" transform="translate(-46.378 -46.326)" fill="#fff"/>
  </g>
</svg>
