<svg xmlns="http://www.w3.org/2000/svg" xmlns:xlink="http://www.w3.org/1999/xlink" width="48" height="48" viewBox="0 0 48 48">
  <defs>
    <clipPath id="clip-path">
      <rect id="Rectangle_235526" data-name="Rectangle 235526" width="48" height="48" transform="translate(-2967 2583)" fill="#ee4136" stroke="#707070" stroke-width="1"/>
    </clipPath>
    <clipPath id="clip-path-2">
      <rect id="Rectangle_235527" data-name="Rectangle 235527" width="38.504" height="42.129" fill="#ee4136"/>
    </clipPath>
  </defs>
  <g id="Mask_Group_272793" data-name="Mask Group 272793" transform="translate(2967 -2583)" clip-path="url(#clip-path)">
    <g id="Group_278004" data-name="Group 278004" transform="translate(-2962.2 2585.88)" clip-path="url(#clip-path-2)">
      <path id="Path_567707" data-name="Path 567707" d="M26.745,71.979,31.25,77.8a3.325,3.325,0,0,1-.61.067q-6.917.01-13.835,0a3.017,3.017,0,0,1-3.257-2.914Q12.4,61.814,11.31,48.67a4.608,4.608,0,0,1,.039-.6H42.2c-.077,1.231-.13,2.445-.231,3.655-.3,3.572-.609,7.144-.949,10.713a2.189,2.189,0,0,1-.479,1.25A14.292,14.292,0,0,0,36.5,71.652a2.588,2.588,0,0,1-.195.5l-2.857-2.37a11.186,11.186,0,0,0,2.575-14.644,11.061,11.061,0,0,0-12.653-4.572,10.95,10.95,0,0,0-7.5,11.638c.491,5.489,4.444,8.906,10.872,9.773" transform="translate(-8.408 -35.745)" fill="#ee4136"/>
      <path id="Path_567708" data-name="Path 567708" d="M43.268,79.8a9.722,9.722,0,0,1-9.807-7.656A9.822,9.822,0,1,1,49.5,77.449,1.843,1.843,0,0,1,47.332,78a4.722,4.722,0,0,0-1.64-.231c-1.987-.1-2.194.074-2.424,2.029m-5.3-11.525c.634-.307,1.33-.477,1.338-.676a19.148,19.148,0,0,0-.211-2.817.487.487,0,0,0-.349-.04c-.752.393-1.507.785-2.223,1.237a.76.76,0,0,0-.118.641c.954.585.415,1.336.251,2.027a6.553,6.553,0,0,0,6.164,7.95c.328,0,.652-.352.978-.54-.278-.194-.549-.4-.84-.573-.1-.058-.251-.022-.378-.036a5.33,5.33,0,0,1-4.612-7.174m8.743,3.772a25.182,25.182,0,0,0,.04,2.709,1,1,0,0,0,.825.506A8.213,8.213,0,0,0,49.461,74.2a1.05,1.05,0,0,0,.186-.81c-.843-.457-.422-1.079-.266-1.656a6.46,6.46,0,0,0-3.466-7.586,11.52,11.52,0,0,0-2.963-.627c-.175-.026-.406.315-.611.487.179.2.324.473.547.567a3.6,3.6,0,0,0,.883.082c3.955.536,5.682,4.846,4.226,7.453l-1.286-.069" transform="translate(-24.709 -44.79)" fill="#ee4136"/>
      <path id="Path_567709" data-name="Path 567709" d="M18.321,30.262c-5.592,0-11.184-.027-16.776.022-1.179.01-1.58-.37-1.543-1.548.1-3.267-.457-2.938,2.938-2.942q15.944-.013,31.887,0c1.833,0,1.839,0,1.833,1.844-.009,2.891.3,2.624-2.588,2.626q-7.876.005-15.751,0" transform="translate(0 -19.176)" fill="#ee4136"/>
      <path id="Path_567710" data-name="Path 567710" d="M115.014,116.646c-2.1-5.358,1.542-12.651,6.9-14.242,1.113-.33,1.151.507,1.3,1.086a12.053,12.053,0,0,1-1.813,9.9,11.3,11.3,0,0,1-5.53,4.455c.64-1.725,1.091-3.158,1.7-4.519.557-1.242,1.319-2.39,1.916-3.616.151-.309.018-.755.016-1.139-.325.193-.8.307-.949.592-1.013,1.921-1.966,3.873-2.915,5.827-.235.484-.382,1.012-.622,1.66" transform="translate(-85.083 -76.098)" fill="#ee4136"/>
      <path id="Path_567711" data-name="Path 567711" d="M46.812,5.346a29.7,29.7,0,0,1,.024-3.2A2.4,2.4,0,0,1,49.212.044Q53.105-.042,57,.038a2.427,2.427,0,0,1,2.444,2.18,25.68,25.68,0,0,1,.025,3.128Z" transform="translate(-34.787 0)" fill="#ee4136"/>
      <path id="Path_567712" data-name="Path 567712" d="M86.248,141c-4.268.645-8.788-3.284-8.853-7.608,3.113-1.307,9.188,2.891,8.853,7.608" transform="translate(-57.555 -99.02)" fill="#ee4136"/>
    </g>
  </g>
</svg>
