<svg xmlns="http://www.w3.org/2000/svg" xmlns:xlink="http://www.w3.org/1999/xlink" width="284.437" height="103.736" viewBox="0 0 284.437 103.736">
  <defs>
    <clipPath id="clip-path">
      <path id="Path_451" data-name="Path 451" d="M0,26.183H284.437V-77.553H0Z" transform="translate(0 77.553)" fill="#f5821f"/>
    </clipPath>
  </defs>
  <g id="Group_147" data-name="Group 147" clip-path="url(#clip-path)">
    <g id="Group_145" data-name="Group 145" transform="translate(-0.005 0)">
      <path id="Path_449" data-name="Path 449" d="M43.345,12.875c-1.085-1.932-2.192-3.86-3.4-5.723-.585-.944-1.214-1.863-1.834-2.787l-.233-.346-.241-.341L37.153,3l-.484-.683c-.16-.229-.322-.454-.49-.677-.667-.893-1.33-1.793-2.029-2.662s-1.4-1.741-2.116-2.6c-1.452-1.7-2.939-3.38-4.513-4.983a94.924,94.924,0,0,0-21.343-16.5A99.022,99.022,0,0,0-19.036-35.08a107.225,107.225,0,0,0-26.917-3.046A86.641,86.641,0,0,0-72.8-33.689a71.372,71.372,0,0,0-12.451,5.6,65.036,65.036,0,0,0-5.736,3.693,61.841,61.841,0,0,0-5.289,4.283,57.768,57.768,0,0,0-8.9,10.162,55.957,55.957,0,0,0-6.193,11.861,57.476,57.476,0,0,0-3.192,12.851c-.122.94-.218,1.882-.294,2.824-.1,1.247-.171,2.493-.2,3.74-.022,1.094-.018,2.185.015,3.294s.115,2.207.222,3.31a46.448,46.448,0,0,0,3.161,12.929,42.634,42.634,0,0,0,3.02,6.02,40.718,40.718,0,0,0,4,5.485,38.961,38.961,0,0,0,4.913,4.758A38.6,38.6,0,0,0-94,60.961a38,38,0,0,0,13.136,4.292c1.148.154,2.3.266,3.459.309s2.318.045,3.446.007a43.933,43.933,0,0,0,6.828-.749,32.929,32.929,0,0,0,6.661-2,25.759,25.759,0,0,0,6.027-3.583,22.541,22.541,0,0,0,4.691-5.154,22.3,22.3,0,0,0,2.842-6.255,21.879,21.879,0,0,0,.656-3.355q.1-.85.125-1.713c.008-.286.011-.578,0-.861s-.014-.562-.029-.844a20.47,20.47,0,0,0-1.422-6.664,16.852,16.852,0,0,0-3.885-5.816,16.3,16.3,0,0,0-6.079-3.708,16.917,16.917,0,0,0-3.511-.8,17.153,17.153,0,0,0-1.8-.113c-.6,0-1.186.021-1.781.067a16.1,16.1,0,0,0-3.535.7,12.75,12.75,0,0,0-3.287,1.6,10.705,10.705,0,0,0-2.644,2.55,9.379,9.379,0,0,0-1.546,3.327,8.661,8.661,0,0,0-.241,1.826,9.085,9.085,0,0,0,.137,1.821,7.991,7.991,0,0,0,.541,1.793,7.41,7.41,0,0,0,1,1.64,7.368,7.368,0,0,0,3.15,2.244,7.653,7.653,0,0,0,1.918.441,7.378,7.378,0,0,0,1.972-.073,6.905,6.905,0,0,0,1.9-.615,5.556,5.556,0,0,0,1.644-1.238,4.95,4.95,0,0,0,1.027-1.77,5.962,5.962,0,0,0,.289-1.91h-2.405a3.046,3.046,0,0,1-.77,2.119A3.627,3.627,0,0,1-67.6,39.488a4.659,4.659,0,0,1-1.273.02,4.947,4.947,0,0,1-1.233-.315A4.714,4.714,0,0,1-72.1,37.7a4.838,4.838,0,0,1-.618-1.074,5.489,5.489,0,0,1-.334-1.223A6.682,6.682,0,0,1-73.12,34.1a6.22,6.22,0,0,1,.2-1.276,6.743,6.743,0,0,1,1.163-2.345,7.855,7.855,0,0,1,1.983-1.821A9.733,9.733,0,0,1-67.236,27.5a12.913,12.913,0,0,1,2.842-.494c.488-.025.986-.037,1.471-.023a13.4,13.4,0,0,1,1.449.124,13.5,13.5,0,0,1,2.8.7,12.912,12.912,0,0,1,4.764,3.054,13.468,13.468,0,0,1,3,4.735,17.124,17.124,0,0,1,1.046,5.6c.007.242.01.483.007.725s-.01.471-.022.708c-.025.471-.071.944-.137,1.413a18.262,18.262,0,0,1-.618,2.795,18.6,18.6,0,0,1-2.486,5.153,18.645,18.645,0,0,1-3.972,4.159,21.584,21.584,0,0,1-5.1,2.875,28.523,28.523,0,0,1-5.79,1.6,39.162,39.162,0,0,1-6.117.532c-1.041.013-2.055,0-3.064-.072s-2.019-.181-3.013-.335a32.921,32.921,0,0,1-11.309-3.973,33.46,33.46,0,0,1-4.867-3.428,33.885,33.885,0,0,1-4.164-4.222,35.223,35.223,0,0,1-3.367-4.852,36.963,36.963,0,0,1-2.52-5.323,40.925,40.925,0,0,1-2.52-11.491q-.107-1.475-.127-2.957c-.007-.984.012-1.986.056-2.98q.089-1.968.316-3.922c.078-.675.164-1.348.274-2.019a51.584,51.584,0,0,1,3.123-11.453A49.755,49.755,0,0,1-99.541-6.271a51.146,51.146,0,0,1,8.075-8.8A54.588,54.588,0,0,1-86.7-18.76a57.764,57.764,0,0,1,5.167-3.165A63.727,63.727,0,0,1-70.3-26.678a78.475,78.475,0,0,1,24.382-3.472A98.292,98.292,0,0,1-21.3-26.823,89.513,89.513,0,0,1,1.315-17.3,85,85,0,0,1,20.121-2.065C21.5-.6,22.8.939,24.066,2.5c.623.788,1.253,1.57,1.845,2.38s1.186,1.62,1.766,2.435c.149.2.29.41.43.619l.421.623.421.623.211.311.2.317c.538.846,1.086,1.685,1.593,2.55,1.03,1.7,1.989,3.459,2.93,5.233H45.77C45,16,44.19,14.427,43.345,12.875" transform="translate(115.069 38.137)" fill="#f5821f"/>
    </g>
    <g id="Group_146" data-name="Group 146" transform="translate(77.521 70.961)">
      <path id="Path_450" data-name="Path 450" d="M4.588,5.929A20.805,20.805,0,0,0,1.476,5V-14.049l3.954.442a25.806,25.806,0,0,0,1.233,3.422l2.681-.442v-6.578H-12.179v6.578l2.681.442a25.806,25.806,0,0,0,1.233-3.422l3.954-.442V5a19,19,0,0,0-2.966.928V8.621H4.229Zm15.178,0A19.811,19.811,0,0,0,16.676,5l1.3-3.488h8.792L27.9,5a17.137,17.137,0,0,0-3.045.932V8.621H37.532l.363-2.692A21.885,21.885,0,0,0,34.691,5L26.355-17.558a25.338,25.338,0,0,0-5.816.707L12.174,5h-.019a20.324,20.324,0,0,0-3.067.932V8.621H19.4ZM19.4-2.349l3.249-8.806,2.863,8.806ZM50.945-4,57.58,5.752a6.346,6.346,0,0,0,5.5,3.311,7.046,7.046,0,0,0,3.886-1.015l.318-2.406A3.668,3.668,0,0,1,63.942,3.9l-6.817-9.16L63.6-13.585h.045a23.65,23.65,0,0,0,3.111-.932v-2.692H56.513l-.37,2.7c.727.375,1.2.618,1.93.932h.045Zm-9.4,9.934V8.621H53.058l.363-2.692A21.065,21.065,0,0,0,50.286,5V-13.585a17.025,17.025,0,0,0,2.771-.932v-2.692H41.721l-.363,2.692a21.032,21.032,0,0,0,3.137.932V5a18.243,18.243,0,0,0-2.955.932m37-.508a7.876,7.876,0,0,1-2.5-.374A22.377,22.377,0,0,0,74.152.768l-3.182.421v6.7a23.273,23.273,0,0,0,8.02,1.169c6.43,0,9.9-3,9.9-7.417,0-3.046-1.251-4.924-6.043-7.852C78.694-8.724,77.9-9.871,77.9-11.416a2.554,2.554,0,0,1,.889-1.9,2.711,2.711,0,0,1,2.041-.642,6.018,6.018,0,0,1,2.294.419A27.254,27.254,0,0,0,84.6-9.3l2.816-.421.978-5.96a20.712,20.712,0,0,0-8.588-1.789c-4.863,0-8.247,2.892-8.247,6.688,0,2.871,1.659,5.276,5.02,7.373,4.979,3.109,6,4.236,6,5.936,0,1.722-1.635,2.891-4.044,2.891m26.8.508A21.065,21.065,0,0,0,102.2,5V-2.415h10.381V5a18.287,18.287,0,0,0-2.955.932V8.621H121.14l.367-2.692A21.065,21.065,0,0,0,118.372,5v-18.56a17.109,17.109,0,0,0,2.771-.95v-2.692H109.807l-.363,2.692a21.208,21.208,0,0,0,3.137.95v7.4H102.2v-7.394a17.154,17.154,0,0,0,2.771-.95V-17.2H93.63l-.367,2.692a21.16,21.16,0,0,0,3.137.95V5a18.244,18.244,0,0,0-2.955.932V8.621h11.518Zm32.84,0A21.08,21.08,0,0,0,135.034,5v-18.56a17.168,17.168,0,0,0,2.772-.95v-2.692H126.47l-.363,2.692a21.192,21.192,0,0,0,3.135.95V5a18.227,18.227,0,0,0-2.953.932V8.621h11.518Zm4.6-20.441a21.193,21.193,0,0,0,3.135.95V5a18.269,18.269,0,0,0-2.953.932V8.621H162.33l.363-7.461L159.785.787c-.455,1.065-1,2.782-1.431,4.216l-6.656.309V-13.563a17.2,17.2,0,0,0,2.771-.95v-2.692H143.132ZM176.605,5.929A19.75,19.75,0,0,0,173.517,5l1.3-3.488H183.6L184.739,5a17.159,17.159,0,0,0-3.044.932V8.621h12.678l.363-2.692a21.885,21.885,0,0,0-3.2-.932l-8.339-22.56a25.338,25.338,0,0,0-5.815.707L169.024,5H169a20.277,20.277,0,0,0-3.067.932V8.621h10.314Zm-.363-8.278,3.249-8.806,2.864,8.806Z" transform="translate(12.179 17.562)" fill="#f5821f"/>
    </g>
  </g>
</svg>
