<svg xmlns="http://www.w3.org/2000/svg" xmlns:xlink="http://www.w3.org/1999/xlink" width="80" height="80" viewBox="0 0 80 80">
  <defs>
    <clipPath id="clip-path">
      <rect id="Rectangle_228064" data-name="Rectangle 228064" width="80" height="80" transform="translate(1389.078 112.078)" fill="#fff" stroke="#707070" stroke-width="1"/>
    </clipPath>
  </defs>
  <g id="Mask_Group_256701" data-name="Mask Group 256701" transform="translate(-1389.078 -112.078)" clip-path="url(#clip-path)">
    <g id="HZND3V01" transform="translate(1391 122.016)">
      <path id="Path_553801" data-name="Path 553801" d="M1084.154-1360.792a7.475,7.475,0,0,0-2.2.808,7.08,7.08,0,0,0-2.811,3.257,5.758,5.758,0,0,0-.458,1.931,6.594,6.594,0,0,0,1.592,4.958,6.707,6.707,0,0,0,8,1.643,7.132,7.132,0,0,0,2.5-2.1,6.7,6.7,0,0,0,1.135-5.161,6.764,6.764,0,0,0-4.482-5.1A6.739,6.739,0,0,0,1084.154-1360.792Zm1.711,4.426a2.307,2.307,0,0,1,1.6,1.547,2.443,2.443,0,0,1-.124,1.563,2.245,2.245,0,0,1-2,1.271,2.244,2.244,0,0,1-2.134-1.638,1.576,1.576,0,0,1-.034-1,2.281,2.281,0,0,1,1.2-1.592A2.221,2.221,0,0,1,1085.865-1356.366Z" transform="translate(-1017.758 1360.9)" fill="#fff"/>
      <path id="Path_553802" data-name="Path 553802" d="M251.983-1123.542a9.34,9.34,0,0,0-2.513.463,5.159,5.159,0,0,0-2.642,1.9,5.164,5.164,0,0,0-.632,1.236,1.6,1.6,0,0,1-.09.316,6.13,6.13,0,0,0-.085,1.892,1.088,1.088,0,0,0,.525.8,4.975,4.975,0,0,0,2.981.023,1.248,1.248,0,0,0,.757-1.073c.124-1.062.254-1.31.819-1.564.294-.136.384-.147,1.163-.152,1.022-.006,1.31.073,1.728.48a1.963,1.963,0,0,1,.5,1.541c-.006,1.265-.4,2.038-1.158,2.27a5.257,5.257,0,0,1-.847.13c-.6.045-.813.124-1.05.384a1.662,1.662,0,0,0-.384.931,2.077,2.077,0,0,0,.469,1.784c.248.214.457.276,1.078.31,1.366.079,2,.463,2.3,1.378a7.2,7.2,0,0,1-.051,2.625,1.839,1.839,0,0,1-1.891,1.282,4.61,4.61,0,0,1-2.36-.322,1.312,1.312,0,0,1-.678-1.124,2.674,2.674,0,0,0-.26-1.067c-.231-.35-.96-.537-2.044-.531-1.44.006-1.9.294-2.049,1.271a5.015,5.015,0,0,0,.231,1.869,5.352,5.352,0,0,0,2.789,3.043,7.326,7.326,0,0,0,1.925.6,13.8,13.8,0,0,0,3.54.023,6.729,6.729,0,0,0,3.7-1.717,5.482,5.482,0,0,0,1.541-3.1,7.4,7.4,0,0,0,.09-1.818,4.17,4.17,0,0,0-.44-2.293,4,4,0,0,0-1.858-1.784c-.322-.17-.514-.384-.339-.384a2.494,2.494,0,0,0,.768-.627,5.2,5.2,0,0,0,1.1-2.676,5.948,5.948,0,0,0-.593-3.975c-.9-1.485-2.575-2.219-5.307-2.344C252.44-1123.553,252.107-1123.553,251.983-1123.542Z" transform="translate(-231.688 1136.951)" fill="#fff"/>
      <path id="Path_553803" data-name="Path 553803" d="M557.247-1123.532c-.107.012-.491.045-.847.079a7.971,7.971,0,0,0-2,.429,5.446,5.446,0,0,0-3.325,2.907,6.146,6.146,0,0,0-.446,1.35l-.13.536v10.276l.13.536a5.761,5.761,0,0,0,.553,1.564,5.529,5.529,0,0,0,3.342,2.761,8.58,8.58,0,0,0,2.874.373,7.889,7.889,0,0,0,2.806-.362,5.325,5.325,0,0,0,3.472-2.936,6.053,6.053,0,0,0,.469-1.4,7.6,7.6,0,0,0,.13-2,8.558,8.558,0,0,0-.1-1.919,5.618,5.618,0,0,0-.525-1.524c-.864-1.75-2.687-2.682-5.228-2.682a4.966,4.966,0,0,0-3.117.841,1.388,1.388,0,0,1-.378.232,7.189,7.189,0,0,1-.039-1.682c.028-1.784.011-1.665.322-2.326a2.289,2.289,0,0,1,.762-.818,3.485,3.485,0,0,1,3.456.186,1.659,1.659,0,0,1,.57,1.214,1.287,1.287,0,0,0,.52,1.039,2.424,2.424,0,0,0,1.581.4c1.186.039,1.739-.169,2.038-.757.13-.254.141-.333.141-1.068a3.319,3.319,0,0,0-.135-1.214,5.116,5.116,0,0,0-1.434-2.3,7.222,7.222,0,0,0-4.782-1.722A5.465,5.465,0,0,0,557.247-1123.532Zm.661,11.434a2.013,2.013,0,0,1,1.835,1.5,3.632,3.632,0,0,1,.125,1.377,3.559,3.559,0,0,1-.125,1.429,2.172,2.172,0,0,1-.8,1.118,2.343,2.343,0,0,1-1.581.39,2.085,2.085,0,0,1-1.1-.169,2.049,2.049,0,0,1-1.118-1.067,4.279,4.279,0,0,1-.254-2.066,2.428,2.428,0,0,1,.514-1.784,2.023,2.023,0,0,1,1.332-.706A2.813,2.813,0,0,1,557.908-1112.1Z" transform="translate(-519.421 1136.942)" fill="#fff"/>
      <path id="Path_553804" data-name="Path 553804" d="M862.65-1123.619c-.09.011-.446.046-.791.085-2.558.254-4.314,1.429-5.149,3.439a4.517,4.517,0,0,0-.361,1.128c-.2.887-.232,1.779-.2,6.33a41.6,41.6,0,0,0,.118,4.849,5.858,5.858,0,0,0,1.446,3.067,5.327,5.327,0,0,0,1.039.886,1.157,1.157,0,0,1,.248.135,7.39,7.39,0,0,0,2.377.8,14.88,14.88,0,0,0,3.393-.006,7.3,7.3,0,0,0,2.366-.791,1.233,1.233,0,0,1,.265-.141,5.331,5.331,0,0,0,1.039-.886,6.054,6.054,0,0,0,1.525-3.772c.074-.819.074-8.56,0-9.4a6.233,6.233,0,0,0-1.231-3.428,5.737,5.737,0,0,0-3.484-2.066A12.156,12.156,0,0,0,862.65-1123.619Zm1.22,3.947a2.1,2.1,0,0,1,1.412,1.152c.316.644.333.847.333,5.341,0,4.844-.011,4.957-.548,5.691a2.126,2.126,0,0,1-1.6.824,2.382,2.382,0,0,1-2.586-1.141c-.3-.655-.294-.44-.294-5.375,0-4.449.006-4.6.113-4.946a2.11,2.11,0,0,1,1.457-1.519A3.98,3.98,0,0,1,863.87-1119.672Z" transform="translate(-807.801 1137.028)" fill="#fff"/>
      <path id="Path_553805" data-name="Path 553805" d="M8.759-997.8a21.394,21.394,0,0,0-4.082,2.778,16.417,16.417,0,0,0-2.806,3.128,11.272,11.272,0,0,0-1.762,4.364,17.771,17.771,0,0,0,0,2.9,10.844,10.844,0,0,0,.954,2.992c1.541,3.151,4.816,6.025,9.457,8.311a25.155,25.155,0,0,0,2.371,1.073c.373.147.853.339,1.067.429a2.909,2.909,0,0,0,.44.169,1.086,1.086,0,0,1,.231.079c.209.1,1.44.508,2.3.768l.819.254c.124.04.367.113.536.158l.593.175c.508.147,2.258.559,3.642.853,1.784.384,3.478.666,5.194.875.514.062,1.124.135,1.355.169s.627.068.87.085c.57.045.774.085.8.164a14.289,14.289,0,0,1-1.265,1.361c-1.253,1.265-1.4,1.445-1.564,1.92a2.24,2.24,0,0,0,.6,2.326,2.3,2.3,0,0,0,2.089.52c.582-.169.8-.372,4.043-3.619,3.41-3.422,3.376-3.382,3.518-4.127a2.219,2.219,0,0,0-.22-1.423c-.192-.367-6.425-6.623-6.792-6.809a1.967,1.967,0,0,0-1.09-.3,1.811,1.811,0,0,0-1.073.266A2.187,2.187,0,0,0,27.8-976.2a2.357,2.357,0,0,0,.339,1.355,12.794,12.794,0,0,0,1.039,1.141c.807.807.943.977.785.977s-2.321-.277-2.727-.35c-.186-.034-.5-.079-.706-.107-.807-.1-3.354-.57-4.065-.751-.429-.107-.836-.209-1.073-.26-.841-.186-2.332-.61-3.5-.994-.514-.169-1.005-.333-1.1-.361a35.347,35.347,0,0,1-5.889-2.631c-.384-.231-.706-.418-.717-.418s-.3-.192-.661-.429c-2.631-1.779-4.127-3.5-4.839-5.556a6.858,6.858,0,0,1-.231-1.5,5.7,5.7,0,0,1,.672-2.512,13.765,13.765,0,0,1,5.358-5.11,2.4,2.4,0,0,0,1.078-1.344,2.982,2.982,0,0,0-.023-1.3,2.537,2.537,0,0,0-.694-1.044A2.31,2.31,0,0,0,8.759-997.8Z" transform="translate(-0.05 1018.396)" fill="#fff"/>
      <path id="Path_553806" data-name="Path 553806" d="M830.876-980.78a2.334,2.334,0,0,0-1.349,1.338,2.567,2.567,0,0,0,.022,1.57,2.806,2.806,0,0,0,1.017,1.18,14,14,0,0,1,3.371,3.235,8.866,8.866,0,0,1,.768,1.383c.023.079.1.276.158.446a6.081,6.081,0,0,1,.288,1.66,6.53,6.53,0,0,1-1.479,3.777,13.827,13.827,0,0,1-1.824,1.909c-.474.4-1.541,1.208-1.637,1.248-.028.011-.271.164-.536.339s-.626.4-.813.5-.452.26-.6.344c-.44.26-2.3,1.152-2.936,1.412-.169.068-.384.158-.48.2-.2.09-.9.356-1.1.424-.079.023-.4.135-.706.248s-.638.226-.734.254-.361.113-.593.192a15.675,15.675,0,0,1-1.609.486c-.373.1-.79.214-.931.254s-.407.113-.593.158-.452.118-.593.158-.356.085-.48.113-.4.079-.621.13c-.875.2-3.009.6-3.783.711-.328.045-.508.074-1.75.266a2.471,2.471,0,0,0-1.282.452,2.214,2.214,0,0,0-.9,1.468,1.352,1.352,0,0,0,.028.773,2.207,2.207,0,0,0,1.988,1.767,29.6,29.6,0,0,0,4.257-.582c1.078-.192,4.065-.841,4.63-1.005.141-.045.418-.118.621-.175s.48-.13.621-.169.407-.118.593-.175c.723-.209,2.417-.762,2.851-.926.169-.068.373-.141.452-.169s.271-.1.423-.158l.65-.254a39.966,39.966,0,0,0,4.658-2.247c.367-.215.672-.389.683-.389a.714.714,0,0,0,.181-.107c.085-.057.384-.254.66-.435a20.344,20.344,0,0,0,4.749-4.257,10.05,10.05,0,0,0,1.344-10.925,12.739,12.739,0,0,0-1.355-2.191,16.438,16.438,0,0,0-1.395-1.558,18.213,18.213,0,0,0-3.291-2.614A2.855,2.855,0,0,0,830.876-980.78Z" transform="translate(-763.447 1002.331)" fill="#fff"/>
    </g>
  </g>
</svg>
