<svg xmlns="http://www.w3.org/2000/svg" xmlns:xlink="http://www.w3.org/1999/xlink" width="48" height="48" viewBox="0 0 48 48">
  <defs>
    <clipPath id="clip-path">
      <rect id="Rectangle_235483" data-name="Rectangle 235483" width="48" height="48" transform="translate(-2894.467 2291.533)" fill="#ab5656"/>
    </clipPath>
    <clipPath id="clip-path-2">
      <rect id="Rectangle_235482" data-name="Rectangle 235482" width="43.999" height="45.463" fill="#fff"/>
    </clipPath>
  </defs>
  <g id="Mask_Group_272788" data-name="Mask Group 272788" transform="translate(2894.467 -2291.533)" clip-path="url(#clip-path)">
    <g id="Group_277903" data-name="Group 277903" transform="translate(-2892.466 2292.802)">
      <g id="Group_277902" data-name="Group 277902" clip-path="url(#clip-path-2)">
        <path id="Path_567638" data-name="Path 567638" d="M29.587,67.375c-7.609-.387-14.146-3-18.694-9.573a1.484,1.484,0,0,1-.013-1.986,21.039,21.039,0,0,1,14.967-9.171c8.774-1.264,16.291,1.167,22.016,8.2,1.555,1.91,1.52,1.977.018,3.908-4.615,5.933-10.911,8.332-18.294,8.626M28.462,48.126a8.653,8.653,0,0,0-7.474,9.232,8.78,8.78,0,0,0,8.486,8.195,8.583,8.583,0,0,0,8.895-7.338c-2.316-.428-2.53-.314-3.71,1.548a5.56,5.56,0,0,1-5.116,2.727,5.675,5.675,0,0,1-5.408-4.758,5.572,5.572,0,0,1,3.382-6.21,1.261,1.261,0,0,0,.956-1.451c-.057-.606-.011-1.221-.011-1.944m2.6.037a11.852,11.852,0,0,0,.033,2.1,1.675,1.675,0,0,0,.752,1.117,6.07,6.07,0,0,1,3.33,3.393,1.2,1.2,0,0,0,.784.661,22.1,22.1,0,0,0,2.452.031,8.362,8.362,0,0,0-7.351-7.3m-1.285,11.23a2.7,2.7,0,0,0,2.6-2.609,2.632,2.632,0,0,0-2.544-2.635,2.693,2.693,0,0,0-2.7,2.642,2.808,2.808,0,0,0,2.641,2.6" transform="translate(-7.728 -34.076)" fill="#fff"/>
        <path id="Path_567639" data-name="Path 567639" d="M93.641,130.18v7.743c2.379,0,4.609.021,6.838-.029.252-.006.535-.373.736-.627a2.5,2.5,0,1,1,3.807,3.18,2.548,2.548,0,0,1-3.814-.427,2.115,2.115,0,0,0-1.371-.664c-2.024-.072-4.053-.072-6.077-.014-1.055.03-1.533-.287-1.5-1.416.057-2.245.043-4.493,0-6.739-.016-.933.292-1.313,1.381-1.007" transform="translate(-67.861 -95.681)" fill="#fff"/>
        <path id="Path_567640" data-name="Path 567640" d="M35.088,3.2c-2.384,0-4.575-.025-6.763.03-.291.007-.625.386-.849.664A2.5,2.5,0,1,1,23.713.657c1.122-1.051,2.705-.808,3.8.489a1.935,1.935,0,0,0,1.26.632c2.112.065,4.228.062,6.342.016.974-.021,1.343.359,1.328,1.318-.034,2.29-.038,4.581,0,6.871.016.882-.291,1.238-1.362,1.006Z" transform="translate(-16.849 0)" fill="#fff"/>
        <path id="Path_567641" data-name="Path 567641" d="M93.661,3.234v7.773c-.924.2-1.41.1-1.39-.944.044-2.334.031-4.669.006-7-.01-.913.383-1.245,1.278-1.23,2.07.036,4.142.057,6.209-.022a2.3,2.3,0,0,0,1.48-.7,2.569,2.569,0,0,1,3.729-.442,2.5,2.5,0,1,1-3.707,3.312c-.248-.3-.627-.7-.956-.706-2.149-.063-4.3-.033-6.65-.033" transform="translate(-67.872 -0.033)" fill="#fff"/>
        <path id="Path_567642" data-name="Path 567642" d="M35.063,137.932v-7.767c.962-.238,1.391-.042,1.376.9q-.052,3.5,0,7c.015,1.008-.456,1.283-1.381,1.265-2.025-.04-4.053.006-6.078-.022a1.646,1.646,0,0,0-1.623.786,2.4,2.4,0,0,1-3.691.332,2.5,2.5,0,0,1,.036-3.648,2.564,2.564,0,0,1,3.739.366,2.32,2.32,0,0,0,1.457.748c1.975.085,3.955.035,6.165.035" transform="translate(-16.841 -95.678)" fill="#fff"/>
        <path id="Path_567643" data-name="Path 567643" d="M9.825,27.21c-1.528,0-2.928-.048-4.32.034-.337.02-.7.424-.964.729a2.5,2.5,0,1,1-3.77-3.266,2.39,2.39,0,0,1,3.689.326,1.781,1.781,0,0,0,1.769.786c1.321-.026,2.644.007,3.966-.01.722-.01,1.053.314,1.048,1.029-.008,1.014-.056,2.031.017,3.04s-.452,1.314-1.435,1.452Z" transform="translate(-0.001 -17.645)" fill="#fff"/>
        <path id="Path_567644" data-name="Path 567644" d="M125.25,27.208v4.077c-1.062-.031-1.485-.473-1.428-1.465.056-.966.029-1.938.011-2.908-.015-.776.321-1.122,1.111-1.1,1.277.028,2.556-.019,3.833.016a1.914,1.914,0,0,0,1.878-.834,2.392,2.392,0,0,1,3.7-.237,2.513,2.513,0,0,1-.037,3.561,2.4,2.4,0,0,1-3.693-.308,1.784,1.784,0,0,0-1.767-.807c-1.137.036-2.276.01-3.6.01" transform="translate(-91.077 -17.648)" fill="#fff"/>
        <path id="Path_567645" data-name="Path 567645" d="M9.837,124.345V120.25c1.033.07,1.478.474,1.419,1.436s-.037,1.939-.009,2.908c.025.857-.366,1.185-1.2,1.152-.924-.037-1.851.007-2.776-.011-1.217-.024-2.32-.084-3.2,1.162-.722,1.019-2.369.834-3.312-.07a2.509,2.509,0,0,1-.121-3.462c.87-.951,2.615-1.281,3.3-.3,1.089,1.56,2.519,1.26,3.962,1.279.6.008,1.205,0,1.941,0" transform="translate(0 -88.453)" fill="#fff"/>
        <path id="Path_567646" data-name="Path 567646" d="M125.208,120.145v4.106c1.556,0,3.035.032,4.51-.03.258-.011.532-.388.742-.643a2.5,2.5,0,1,1,3.792,3.212c-1.128,1.061-2.681.84-3.811-.451a2.045,2.045,0,0,0-1.263-.647,30.8,30.8,0,0,0-3.83-.014c-1.119.064-1.658-.281-1.554-1.481a15.5,15.5,0,0,0,0-2.509c-.07-.924.3-1.407,1.414-1.542" transform="translate(-91.05 -88.376)" fill="#fff"/>
      </g>
    </g>
  </g>
</svg>
