<svg xmlns="http://www.w3.org/2000/svg" xmlns:xlink="http://www.w3.org/1999/xlink" width="48" height="48" viewBox="0 0 48 48">
  <defs>
    <clipPath id="clip-path">
      <rect id="Rectangle_235525" data-name="Rectangle 235525" width="48" height="48" transform="translate(-2925 2505)" fill="#034693" stroke="#707070" stroke-width="1"/>
    </clipPath>
    <clipPath id="clip-path-2">
      <rect id="Rectangle_235523" data-name="Rectangle 235523" width="44" height="44" transform="translate(0.083 0.083)" fill="#034693"/>
    </clipPath>
  </defs>
  <g id="Mask_Group_272792" data-name="Mask Group 272792" transform="translate(2925 -2505)" clip-path="url(#clip-path)">
    <g id="Group_278003" data-name="Group 278003" transform="translate(-2923.083 2506.917)">
      <g id="Group_277997" data-name="Group 277997" transform="translate(0 0)" clip-path="url(#clip-path-2)">
        <path id="Path_567697" data-name="Path 567697" d="M24.195,44.31c4.165-4.163,5.19-9.1,4.5-14.632-3.327,2.842-5.835,3.244-8.4,1.4-2.4-1.72-2.905-4.32-1.471-7.868a5.668,5.668,0,0,1-4.1-3.191,7.735,7.735,0,0,1-.552-3.46c.272-2.728,2.341-4.353,5.844-4.908,1.146-4.24,2.7-5.659,6.474-5.835.09-.413.179-.85.283-1.284a5.864,5.864,0,0,1,4.865-4.5c.91-.144,1.239.143,1.223,1.09-.047,2.812-.017,5.626-.017,8.439v1.483c.519-.6.955-.9,1.112-1.316.928-2.43,2.254-4.751,2.122-7.488a7.3,7.3,0,0,1,.123-1.61c.038-.216.279-.4.428-.592.152.224.433.448.434.673,0,.947-.075,1.895-.14,3.135A12.27,12.27,0,0,1,38.351,2.7a3.73,3.73,0,0,1,1.086-.247c-.156.308-.231.742-.481.9A8.465,8.465,0,0,0,35.5,8.484a2.943,2.943,0,0,0-.1.331,1.592,1.592,0,0,0,.055.353c2.634-.981,5.28-1.869,7.829-2.981.668-.292,1.007-1.3,1.551-1.933a4.424,4.424,0,0,1,.917-.641,3.853,3.853,0,0,1-.141,1.094,12.82,12.82,0,0,1-.928,1.511c.833.219,1.6.382,2.339.639.2.069.3.423.444.646-.227.079-.519.292-.671.218-2.913-1.421-5.353.331-7.924,1.16-.914.295-1.773.8-2.7,1a4.472,4.472,0,0,0-2.983,2.362,9.524,9.524,0,0,0-.471,2.967c2.079-.681,3.862-1.26,5.642-1.85a33.063,33.063,0,0,0,3.918-1.367,16.041,16.041,0,0,0,2.579-1.878c.244-.186.432-.474.7-.594a2.216,2.216,0,0,1,.806-.036c-.066.233-.064.526-.21.687-.428.473-.914.894-1.61,1.557,1.43,0,2.57.063,3.7-.034.392-.034.771-.437,1.116-.72s.631-.689,1-.95c.187-.131.515-.059.779-.079-.042.234,0,.552-.141.686-.469.452-1,.839-1.651,1.365,1.066.831,1.9,1.433,2.664,2.107.223.2.264.6.388.906-.308-.055-.725,0-.907-.182-3.12-3.115-6.741-2.5-10.4-1.391-2.429.735-4.811,1.623-7.236,2.375a1.234,1.234,0,0,0-1.027,1.482c.072.995.017,2,.017,3.29a24.313,24.313,0,0,1,2.164-1.735c.826-.519,1.758-.865,2.607-1.352a3.158,3.158,0,0,0,1.332-1.069c.506-1.065,1.207-1.26,2.346-1.347,2.507-.192,4.006,1.524,5.825,2.653.16.1.17.441.25.671-.267.015-.593.137-.789.027a12.453,12.453,0,0,1-1.819-1.223,5.033,5.033,0,0,0-3.4-1.114,1.492,1.492,0,0,0-1.725,1.362,10.743,10.743,0,0,0,1.218.5,3.6,3.6,0,0,1,2.685,2.257c.139.372.783.662,1.249.782.852.22,1.751.254,2.615.439.221.047.382.371.571.567-.246.117-.509.357-.737.328a21.005,21.005,0,0,1-3.518-.613c-.474-.145-.879-.778-1.151-1.278-1.081-1.987-4.5-2.777-6.3-1.395-.7.539-1.376,1.116-2.058,1.682-1.569,1.3-1.618,1.454-1.191,3.77.886-.768,1.682-1.536,2.564-2.186a2.418,2.418,0,0,1,1.437-.469,20.993,20.993,0,0,1,7.821,1.807,2.683,2.683,0,0,0,2.314.013c1.314-.543,2.664-1,4.016-1.448.253-.083.586.074.882.12-.179.245-.307.622-.545.713-1.688.647-3.389,1.265-5.109,1.819a1.964,1.964,0,0,1-1.2-.143A23.151,23.151,0,0,0,37.395,22.8a2.523,2.523,0,0,0-1.432.406c-.754.525-1.36,1.265-2.12,1.779-1.078.729-1.107,1.693-.612,3.039.2-.319.377-.656.6-.954a4.223,4.223,0,0,1,3.4-2.028c1.327-.03,2.6-.392,3.934.236a11.3,11.3,0,0,0,6.212,1.387,2.529,2.529,0,0,0,2.146-1.019,5.787,5.787,0,0,1,1.077-1.2,2.4,2.4,0,0,1,.846-.279,2.8,2.8,0,0,1-.207.908,3.817,3.817,0,0,1-.918,1.031,1.666,1.666,0,0,0-.281,2.6,1.874,1.874,0,0,0,2.3.5,2.577,2.577,0,0,1,1.011.066c-.246.272-.44.669-.745.795A2.608,2.608,0,0,1,48.926,28.5a1.225,1.225,0,0,0-1.505-.989c-.679.065-1.369.013-2.208.013.335,1.308.662,2.446.9,3.6a4.307,4.307,0,0,1-.1,1.228,5.345,5.345,0,0,1-.77-1.057,5.994,5.994,0,0,1-.52-1.884c-.1-1.679-1.143-2.284-2.57-2.761a8.636,8.636,0,0,0-4.561-.734c-1.877.365-2.22.466-3.338,2.228l1.1-.064a20.209,20.209,0,0,1-.01,2.087c-.571,5.336.6,10.109,4.649,14.136Z" transform="translate(-11.813 -0.219)" fill="#034693"/>
        <path id="Path_567698" data-name="Path 567698" d="M2.284,171.66a13.342,13.342,0,0,1,1.557-.655c.18-.053.444.181.669.284-.142.185-.253.49-.43.534a1.787,1.787,0,0,0-1.353,1.532c-.047.2-.316.348-.483.52-.156-.184-.409-.347-.451-.554a1.709,1.709,0,0,0-1.372-1.5c-.166-.038-.282-.287-.422-.439.2-.135.439-.421.588-.38a16.052,16.052,0,0,1,1.7.66" transform="translate(-0.218 -140.329)" fill="#034693"/>
        <path id="Path_567699" data-name="Path 567699" d="M222.721.94a10.424,10.424,0,0,1,1.49-.684c.2-.06.5.2.752.316-.15.184-.277.5-.455.531-.87.154-1.177.731-1.342,1.505-.044.209-.3.373-.455.557-.163-.18-.419-.335-.472-.543-.192-.747-.456-1.366-1.338-1.515-.174-.029-.3-.349-.446-.535.249-.118.542-.384.739-.325a10.942,10.942,0,0,1,1.528.693" transform="translate(-180.872 -0.415)" fill="#034693"/>
        <path id="Path_567700" data-name="Path 567700" d="M2.328.878A10.853,10.853,0,0,1,3.849.2c.195-.056.483.214.729.335-.154.181-.286.491-.467.522-.823.142-1.1.708-1.309,1.411-.072.243-.33.431-.5.644-.153-.189-.4-.359-.444-.571A1.616,1.616,0,0,0,.5,1.051C.334,1.021.215.694.073.5.291.39.554.134.72.186A14.677,14.677,0,0,1,2.328.878" transform="translate(-0.279 -0.366)" fill="#034693"/>
      </g>
    </g>
  </g>
</svg>
