<svg xmlns="http://www.w3.org/2000/svg" xmlns:xlink="http://www.w3.org/1999/xlink" width="129.479" height="137.02" viewBox="0 0 129.479 137.02">
  <defs>
    <clipPath id="clip-path">
      <rect id="Rectangle_234647" data-name="Rectangle 234647" width="50" height="50" transform="translate(-18415 1140)" fill="#034693" stroke="#707070" stroke-width="1"/>
    </clipPath>
    <clipPath id="clip-path-2">
      <rect id="Rectangle_225387" data-name="Rectangle 225387" width="42" height="43" transform="translate(-8513 11146)" fill="#034693"/>
    </clipPath>
    <clipPath id="clip-path-3">
      <rect id="Rectangle_225386" data-name="Rectangle 225386" width="36.931" height="41.303" transform="translate(0 -2)" fill="#034693"/>
    </clipPath>
  </defs>
  <g id="Group_278435" data-name="Group 278435" transform="translate(-171.521 -40.34)">
    <g id="Group_278435-2" data-name="Group 278435" transform="translate(-91 40.34)">
      <path id="Path_564677" data-name="Path 564677" d="M0,0H127.356a2.421,2.421,0,0,1,2.123,2.635V137.02l-72.2-71.05Z" transform="translate(262.521)" fill="#fff"/>
      <g id="Mask_Group_266095" data-name="Mask Group 266095" transform="translate(18742 -1125)" clip-path="url(#clip-path)">
        <g id="Mask_Group_227957" data-name="Mask Group 227957" transform="translate(-9898 -10002)" clip-path="url(#clip-path-2)">
          <g id="Group_254583" data-name="Group 254583" transform="translate(-8510 11148)">
            <g id="Mask_Group_254582" data-name="Mask Group 254582" clip-path="url(#clip-path-3)">
              <path id="Path_524828" data-name="Path 524828" d="M52.6,74.6a6.43,6.43,0,0,1-6.426-6.243q-8.1,0-16.194,0A2.67,2.67,0,0,0,27,71.365q0,8.034,0,16.069,0,3.014,3.06,3.015,5.438,0,10.878,0,5.52,0,11.041,0,3.057,0,3.061-3.014,0-6.66,0-13.319a6.387,6.387,0,0,1-2.44.48M31.789,77.443a3.964,3.964,0,0,1,3.887-3.971,3.951,3.951,0,1,1,.041,7.9,3.965,3.965,0,0,1-3.929-3.93m14.443,7.265a1.115,1.115,0,0,1-.861.6c-1.449.063-2.9.028-4.354.028s-2.9,0-4.354,0c-.495,0-.969-.138-.866-.691a1.114,1.114,0,0,1,.864-.6c2.9-.046,5.806-.025,8.71-.03.5,0,.968.135.861.691m.04-3.335a3.971,3.971,0,0,1-3.929-3.934,3.952,3.952,0,1,1,7.9.048,3.965,3.965,0,0,1-3.975,3.886" transform="translate(-22.545 -57.083)" fill="#034693"/>
              <path id="Path_524829" data-name="Path 524829" d="M75.008,214.928c-2.087,0-4.175.005-6.263,0-.951,0-1.189-.339-.869-1.227.343-.955.728-1.895,1.054-2.855a.679.679,0,0,1,.761-.546c3.543.017,7.087,0,10.63.031a.96.96,0,0,1,.691.482c.451.969.846,1.964,1.23,2.962.3.775.036,1.147-.806,1.151-2.142.012-4.285,0-6.427,0" transform="translate(-56.574 -175.628)" fill="#034693"/>
              <path id="Path_524830" data-name="Path 524830" d="M98.129,21.923H96.86a2.2,2.2,0,0,1-.053-.479,1.532,1.532,0,0,0-.959-1.848A2.65,2.65,0,0,1,94.7,16.439a2.827,2.827,0,0,1,2.588-2.067,2.884,2.884,0,0,1,2.014,5.1c-.382.309-.937.516-1.133.91a3.955,3.955,0,0,0-.043,1.544" transform="translate(-78.991 -11.999)" fill="#034693"/>
              <path id="Path_524831" data-name="Path 524831" d="M3.1,107.617v9.108c-1.462-.232-2.949-2.2-3.082-4.09A4.838,4.838,0,0,1,3.1,107.617" transform="translate(0 -89.875)" fill="#034693"/>
              <path id="Path_524832" data-name="Path 524832" d="M205.374,107.6a4.953,4.953,0,0,1,0,9.165Z" transform="translate(-171.516 -89.857)" fill="#034693"/>
              <path id="Path_524833" data-name="Path 524833" d="M130.212,111.47a2.043,2.043,0,1,1,2-2.041,2.013,2.013,0,0,1-2,2.041" transform="translate(-106.431 -89.088)" fill="#034693"/>
              <path id="Path_524834" data-name="Path 524834" d="M66.094,107.455a2.017,2.017,0,1,1-2.051,1.959,1.994,1.994,0,0,1,2.051-1.959" transform="translate(-52.874 -89.132)" fill="#034693"/>
              <g id="Group_254584" data-name="Group 254584" transform="translate(-0.365 -2.049)">
                <path id="Path_524835" data-name="Path 524835" d="M147.275,24.023a1.53,1.53,0,0,1-.988-1.582,1.575,1.575,0,0,1,1.068-1.421,1,1,0,0,1,1.078.244c.136.132.28.229.442.059s.063-.333-.079-.472a1.791,1.791,0,0,0-1.279-.464,1.27,1.27,0,0,1,.631-1.577,1.247,1.247,0,0,1,1.606.318c.029.036.049.095.085.105.137.041.278.067.417.1.007-.143.077-.34.009-.419a10.221,10.221,0,0,0-.788-.763.9.9,0,0,1,.993-.534,1.007,1.007,0,0,1,.917.8,2.19,2.19,0,0,1,.032.41q0,3.713,0,7.425a2.1,2.1,0,0,1-.043.478.659.659,0,0,1-.727.572h-.585c-.4,0-.579-.139-.7-.554a.61.61,0,0,1,.273-.8c.177-.1.284-.262.141-.412a.488.488,0,0,0-.443-.041,1.057,1.057,0,0,0-.566.914,1.206,1.206,0,0,1-1.256-.864,1.306,1.306,0,0,1,.541-1.531,3.73,3.73,0,0,0,.4-.192,1.587,1.587,0,0,0,.249-.343c-.142-.058-.319-.2-.418-.159a5.534,5.534,0,0,0-.847.5.738.738,0,0,0-.155.2" transform="translate(-122.168 -14.311)" fill="#034693"/>
                <path id="Path_524836" data-name="Path 524836" d="M181.609,26.078h-1.523v-.327q0-4.533,0-9.066c0-.5.1-.6.584-.532a4.026,4.026,0,0,1,3.392,2.744,3.94,3.94,0,0,1-.854,4.361,4.692,4.692,0,0,0-1.6,2.821m1.934-5.947a3.462,3.462,0,0,0-2.128-2.956.49.49,0,0,0-.26-.064c-.087.016-.21.084-.23.154a.443.443,0,0,0,.068.3c.033.057.136.075.208.107a2.908,2.908,0,0,1,1.753,2.175,4.856,4.856,0,0,0,.062.541.38.38,0,0,0,.274.225c.085,0,.186-.148.247-.249.035-.059.006-.156.006-.236" transform="translate(-149.639 -13.112)" fill="#034693"/>
                <path id="Path_524837" data-name="Path 524837" d="M162.749,73.034c-.881,0-1.763.008-2.644-.007-.163,0-.437-.061-.463-.151a.9.9,0,0,1,.03-.668.865.865,0,0,1,.61-.346c1.648-.028,3.3-.022,4.944-.012a.7.7,0,0,1,.749.755c-.023.264-.116.44-.446.434-.927-.018-1.854-.006-2.781-.006" transform="translate(-132.985 -58.387)" fill="#034693"/>
                <path id="Path_524838" data-name="Path 524838" d="M162.522,80.71h2.711c.427,0,.606.251.475.664a.677.677,0,0,1-.688.515q-2.487.009-4.975,0a.682.682,0,0,1-.711-.572c-.09-.406.068-.607.478-.607h2.711" transform="translate(-132.753 -65.595)" fill="#034693"/>
                <path id="Path_524839" data-name="Path 524839" d="M166.427,89.666H170.2a.764.764,0,0,1-.75.715c-.755.026-1.513.025-2.268,0a.77.77,0,0,1-.757-.716" transform="translate(-138.538 -72.873)" fill="#034693"/>
                <path id="Path_524840" data-name="Path 524840" d="M179.14.957a4.173,4.173,0,0,1-.012.7c-.017.1-.172.182-.264.272-.091-.09-.256-.176-.262-.269a13.006,13.006,0,0,1,0-1.412c0-.087.158-.169.243-.253.1.084.266.159.283.253a4.034,4.034,0,0,1,.014.7" transform="translate(-148.416 0.087)" fill="#034693"/>
                <path id="Path_524841" data-name="Path 524841" d="M207.789,37.5a5.66,5.66,0,0,1,.819.012c.117.017.215.169.321.261-.106.093-.209.26-.319.265-.569.027-1.141.027-1.709,0-.107-.005-.206-.182-.308-.28.1-.085.2-.231.308-.244a7.626,7.626,0,0,1,.888-.012" transform="translate(-171.182 -30.471)" fill="#034693"/>
                <path id="Path_524842" data-name="Path 524842" d="M200.418,59.033c-.055.069-.1.178-.178.209a.319.319,0,0,1-.28-.031c-.445-.424-.883-.856-1.3-1.306a.37.37,0,0,1,.023-.351.327.327,0,0,1,.323-.028c.457.427.9.875,1.335,1.321a.663.663,0,0,1,.079.186" transform="translate(-164.705 -46.727)" fill="#034693"/>
                <path id="Path_524843" data-name="Path 524843" d="M200.255,11.432a1.578,1.578,0,0,1-.159.244c-.384.39-.773.776-1.16,1.163-.133.133-.282.221-.443.06s-.093-.3.048-.443c.389-.385.768-.781,1.167-1.155a.51.51,0,0,1,.358-.1c.065.005.119.138.189.226" transform="translate(-164.525 -9.105)" fill="#034693"/>
              </g>
            </g>
          </g>
        </g>
      </g>
    </g>
  </g>
</svg>
