<svg xmlns="http://www.w3.org/2000/svg" xmlns:xlink="http://www.w3.org/1999/xlink" width="48" height="48" viewBox="0 0 48 48">
  <defs>
    <clipPath id="clip-path">
      <rect id="Rectangle_235531" data-name="Rectangle 235531" width="48" height="48" transform="translate(1294 3414)" fill="#4cb760" stroke="#707070" stroke-width="1"/>
    </clipPath>
    <clipPath id="clip-path-2">
      <rect id="Rectangle_235530" data-name="Rectangle 235530" width="35.156" height="35.175" fill="#4cb760"/>
    </clipPath>
  </defs>
  <g id="Mask_Group_272795" data-name="Mask Group 272795" transform="translate(-1294 -3414)" clip-path="url(#clip-path)">
    <g id="Group_278011" data-name="Group 278011" transform="translate(1300.243 3420.244)">
      <g id="Group_278010" data-name="Group 278010" clip-path="url(#clip-path-2)">
        <path id="Path_567722" data-name="Path 567722" d="M3.487,3.969c3.806-.141,9.7,2.026,11.3,6.677a3.366,3.366,0,0,1-.466,3.374c-.269-.245-.515-.453-.742-.679-1.6-1.6-3.189-3.219-4.816-4.8-.32-.31-.556-1.044-1.2-.553a2.493,2.493,0,0,0,.57,1.122c1.574,1.629,3.193,3.214,4.794,4.817.231.231.449.476.715.76a3.091,3.091,0,0,1-2.891.622,8.732,8.732,0,0,1-5.268-4.3,15.005,15.005,0,0,1-2-7.048" transform="translate(-2.846 -3.234)" fill="#4cb760"/>
        <path id="Path_567723" data-name="Path 567723" d="M52.621,111.677l-7.587,1.232a10.375,10.375,0,0,0-1.443.26c-.235.074-.407.347-.608.531.25.1.518.325.748.291,2.06-.3,4.112-.652,6.167-.982.93-.15,1.861-.287,2.886-.444a3.309,3.309,0,0,1-1.562,3.069,8.652,8.652,0,0,1-5.586,1.466,14.52,14.52,0,0,1-7.458-2.528c1.848-3.4,7.432-6.13,11.166-5.494a3.716,3.716,0,0,1,3.277,2.6" transform="translate(-31.158 -88.943)" fill="#4cb760"/>
        <path id="Path_567724" data-name="Path 567724" d="M114.421,37.012a15.355,15.355,0,0,1,2.269,4.909,10.226,10.226,0,0,1-.546,7.51,3.625,3.625,0,0,1-3.565,2.374q.4-2.53.807-5.038c.2-1.268.44-2.532.6-3.806a2.544,2.544,0,0,0-.271-.93c-.193.261-.509.5-.56.787-.467,2.65-.888,5.308-1.325,7.964-.048.293-.113.583-.183.939a3.866,3.866,0,0,1-2.574-3.567,10.414,10.414,0,0,1,2.295-7.721c.894-1.182,1.974-2.224,3.052-3.421" transform="translate(-88.956 -30.206)" fill="#4cb760"/>
        <path id="Path_567725" data-name="Path 567725" d="M75.814,152.524c2.865-3.225,6.119-5.694,10.785-5.315a3.908,3.908,0,0,1,3.726,2.5c-.333.09-.606.19-.887.235-2.686.436-5.375.85-8.057,1.312-.276.047-.5.369-.756.563.307.1.634.328.918.284,2.718-.422,5.429-.891,8.143-1.341.231-.038.468-.035.78-.057a3.518,3.518,0,0,1-1.868,3.288,9.854,9.854,0,0,1-7.9.844,46.113,46.113,0,0,1-4.914-1.9q.015-.208.03-.417" transform="translate(-61.848 -120.107)" fill="#4cb760"/>
        <path id="Path_567726" data-name="Path 567726" d="M74.516,14.653c.472-2.911.944-5.711,1.36-8.52a4.143,4.143,0,0,0-.227-1.28,4.537,4.537,0,0,0-.587,1.161c-.468,2.62-.883,5.25-1.32,7.876a6.077,6.077,0,0,1-.178.615,3.445,3.445,0,0,1-2.351-2.482,9.651,9.651,0,0,1,1.2-7.416A14.417,14.417,0,0,1,76.4,0c2.324,3.127,3.8,8.568,1.523,12.51a3.6,3.6,0,0,1-3.408,2.143" transform="translate(-57.874)" fill="#4cb760"/>
        <path id="Path_567727" data-name="Path 567727" d="M0,76.568c2.436-3.415,7.319-6.5,11.849-5.306a3.527,3.527,0,0,1,2.687,2.425c-.656.118-1.244.231-1.834.328-2.384.389-4.771.76-7.15,1.178-.255.045-.464.352-.694.538.277.1.573.328.83.29,2.449-.366,4.892-.777,7.336-1.172.5-.082,1.012-.15,1.515-.225a3.373,3.373,0,0,1-2.041,3.4,9.867,9.867,0,0,1-6.509.933A15.262,15.262,0,0,1,0,76.568" transform="translate(0 -57.944)" fill="#4cb760"/>
        <path id="Path_567728" data-name="Path 567728" d="M150.485,90.275c.376-2.317.727-4.489,1.083-6.66.134-.816.311-1.626.4-2.446.027-.242-.175-.508-.272-.764-.2.207-.538.389-.579.624-.453,2.594-.859,5.2-1.281,7.795-.063.39-.144.777-.231,1.241a3.3,3.3,0,0,1-2.36-2.62,9.163,9.163,0,0,1,.455-5.679,15.451,15.451,0,0,1,4.842-6.272c2.27,3.872,3.537,7.782,1.677,12.1a3.877,3.877,0,0,1-3.736,2.677" transform="translate(-119.962 -61.611)" fill="#4cb760"/>
      </g>
    </g>
  </g>
</svg>
